<?xml version="1.0" encoding="UTF-8"?>
<svg width="88px" height="32px" viewBox="0 0 88 32" version="1.1" xmlns="http://www.w3.org/2000/svg" xmlns:xlink="http://www.w3.org/1999/xlink">
    <!-- Generator: sketchtool 51.3 (57544) - http://www.bohemiancoding.com/sketch -->
    <title>454E39AA-051F-4143-A396-777092579602</title>
    <desc>Created with sketchtool.</desc>
    <defs></defs>
    <g id="Checkout" stroke="none" stroke-width="1" fill="none" fill-rule="evenodd" opacity="0.437783062">
        <g id="Checkout-Confirm-Mob" transform="translate(-168.000000, -1678.000000)" fill="#626F77">
            <g id="Group-10" transform="translate(63.000000, 1670.000000)">
                <g id="latest" transform="translate(105.382716, 8.361111)">
                    <g id="Layer_1">
                        <g id="Group">
                            <g transform="translate(0.495275, 0.000000)" id="Shape">
                                <path d="M81.6676464,12.2617685 C81.6676464,11.3160529 82.4043682,10.5507553 83.3037878,10.5507553 C84.2081601,10.5507553 84.9372051,11.3160529 84.9372051,12.2617685 C84.9372051,13.208963 84.2084078,13.9742606 83.3037878,13.9742606 C82.4043682,13.9742606 81.6676464,13.208963 81.6676464,12.2617685 L81.6676464,12.2617685 Z M83.3040354,13.5688131 C83.9914773,13.5688131 84.552624,12.9817152 84.552624,12.2617685 C84.552624,11.545519 83.9914773,10.963597 83.3040354,10.963597 C82.6193176,10.963597 82.0554468,11.545519 82.0554468,12.2617685 C82.0554468,12.9817152 82.6193176,13.5688131 83.3040354,13.5688131 L83.3040354,13.5688131 Z M83.0814092,13.0117848 L82.7463556,13.0117848 L82.7463556,11.504358 L83.3538105,11.504358 C83.4773817,11.504358 83.6160587,11.5117522 83.7222952,11.5874193 C83.8384372,11.6724524 83.9052994,11.8151601 83.9052994,11.9662478 C83.9052994,12.1333563 83.8099589,12.2896199 83.6581571,12.3463086 L83.9204053,13.0117848 L83.5479584,13.0117848 L83.3263228,12.4209899 L83.0811616,12.4209899 L83.0811616,13.0117848 L83.0814092,13.0117848 Z M83.0814092,12.1646583 L83.268128,12.1646583 C83.3367236,12.1646583 83.4162152,12.1668765 83.4736671,12.1333563 C83.5303761,12.0966318 83.5556352,12.0234295 83.5556352,11.9588536 C83.5556352,11.9021649 83.5226994,11.833892 83.4736671,11.8072729 C83.4236443,11.7735062 83.3228559,11.7811468 83.2641658,11.7811468 L83.0814092,11.7811468 L83.0814092,12.1646583 L83.0814092,12.1646583 Z"></path>
                                <path d="M58.2745648,0.883111552 L57.8263408,3.78483422 C56.8541158,3.26970635 56.1391861,3.06784524 55.3754719,3.06784524 C53.3376625,3.06784524 51.8964119,5.12958907 51.8964119,8.07321208 C51.8964119,10.1063651 52.8639318,11.3313342 54.4550031,11.3313342 C55.1303107,11.3313342 55.8724805,11.1154242 56.7805674,10.6419502 L56.3023793,13.6955 C55.2979614,13.9831336 54.6427124,14.0854198 53.883208,14.0854198 C50.9313684,14.0854198 49.0953835,11.869384 49.0953835,8.31229056 C49.0953835,3.52751675 51.6321826,0.186333333 55.2610634,0.186333333 C55.7298413,0.186333333 56.1485964,0.231930776 56.4888504,0.330026896 L57.6170871,0.624315256 C57.9528836,0.756671076 58.028413,0.776881834 58.2745648,0.883111552 L58.2745648,0.883111552 Z"></path>
                                <path d="M49.1889905,2.87189947 C49.1030603,2.85563228 49.0079675,2.84380159 48.9089124,2.84380159 C48.0070165,2.84380159 47.4971307,3.31875441 46.6596205,4.61470767 L46.9028006,2.96161552 L44.4232058,2.96161552 L42.742242,13.8391936 L45.493,13.8391936 C46.4766164,7.19083995 46.7282161,6.04277028 48.0468861,6.04277028 C48.1271207,6.04277028 48.1345498,6.04277028 48.2469773,6.05386155 C48.4901573,4.74311993 48.8232298,3.77941182 49.2825975,2.9004903 L49.1889905,2.87189947 L49.1889905,2.87189947 Z"></path>
                                <path d="M32.8003371,13.7063448 C32.0561863,13.9528175 31.4680471,14.0649625 30.8363237,14.0649625 C29.4391526,14.0649625 28.6761813,13.217836 28.6761813,11.6722059 C28.6761813,11.3690445 28.6989639,11.0419753 28.7541871,10.6969136 L28.9235712,9.63634171 L29.0491234,8.7699903 L30.2367931,1.34771252 L32.9580822,1.34771252 L32.6460589,2.96161552 L34.0466969,2.96161552 L33.6621158,5.60577425 L32.2649447,5.60577425 L31.541843,10.1455542 C31.5170793,10.3459365 31.4960301,10.4938201 31.4960301,10.5961063 C31.4960301,11.1531345 31.7815562,11.4020719 32.4286331,11.4020719 C32.744371,11.4020719 32.9823507,11.369291 33.1653549,11.3005251 L32.8003371,13.7063448 L32.8003371,13.7063448 Z"></path>
                                <path d="M22.0095306,6.40138801 C22.0095306,7.77424074 22.6449686,8.72365344 24.0839904,9.43324824 C25.1859776,9.97869224 25.3610573,10.1376671 25.3610573,10.6328307 C25.3610573,11.3086587 24.8719731,11.621679 23.7947498,11.621679 C22.982251,11.621679 22.2227466,11.486612 21.3473478,11.1861618 L20.96871,13.6952535 L21.0925288,13.7213796 L21.5949854,13.8273629 C21.7566927,13.8616226 21.9946724,13.8921852 22.3086768,13.9259519 C22.9614494,13.9865842 23.4619249,14.015668 23.8160466,14.015668 C26.6876517,14.015668 28.0162272,12.861683 28.0162272,10.3841398 C28.0162272,8.89544489 27.4625096,8.01504453 26.0940645,7.35597663 C24.9522077,6.81447619 24.8226933,6.68680335 24.8226933,6.18178086 C24.8226933,5.59172531 25.2756224,5.28856393 26.1549833,5.28856393 C26.6913663,5.28856393 27.4186778,5.35190741 28.1130535,5.45049647 L28.5030826,2.93869356 C27.7893912,2.81767549 26.7295024,2.72426235 26.1014936,2.72426235 C23.0545611,2.72426235 21.9981393,4.39362169 22.0095306,6.40138801 L22.0095306,6.40138801 Z"></path>
                                <path d="M80.0785562,13.8391936 L77.4877721,13.8391936 L77.6237252,12.7734458 C76.8691735,13.6153964 76.0948109,13.9828871 75.0943552,13.9828871 C73.0922055,13.9828871 71.7802218,12.1873338 71.7802218,9.46750794 C71.7802218,5.84953571 73.8190218,2.79475353 76.2401741,2.79475353 C77.3040251,2.79475353 78.1083519,3.25319268 78.8658751,4.28394136 L79.4616911,0.462629189 L82.1599499,0.462629189 L80.0785562,13.8391936 L80.0785562,13.8391936 Z M76.0383495,11.2780961 C77.3173975,11.2780961 78.2113691,9.76647928 78.2113691,7.61354056 C78.2113691,6.2310754 77.7009881,5.47810141 76.7550126,5.47810141 C75.5148437,5.47810141 74.633254,6.99588007 74.633254,9.13649515 C74.633254,10.5608607 75.1077276,11.2780961 76.0383495,11.2780961 L76.0383495,11.2780961 Z"></path>
                                <path d="M41.4711185,13.6107134 C40.5345532,13.9035229 39.6291903,14.0514065 38.6584511,14.047463 C35.605823,14.047463 34.0107895,12.3753924 34.0107895,9.1783955 C34.0107895,5.44014462 36.0394363,2.68852381 38.7973758,2.68852381 C41.0466677,2.68852381 42.4913852,4.23070326 42.4913852,6.6476142 C42.4913852,7.44791093 42.3940636,8.22824339 42.1503883,9.33071561 L36.7073148,9.33071561 C36.6845322,9.49634524 36.6810652,9.57201235 36.6810652,9.66813668 C36.6810652,10.9394427 37.4952975,11.5797787 39.0883499,11.5797787 C40.0647848,11.5797787 40.9438981,11.3690445 41.9280098,10.8879299 L41.4711185,13.6107134 L41.4711185,13.6107134 Z M39.9352703,7.13341182 C39.9508715,6.90616402 39.9545861,6.72081658 39.9545861,6.58303836 C39.9545861,5.69401146 39.4726834,5.17494004 38.6584511,5.17494004 C37.7902338,5.17494004 37.1681683,5.86826764 36.9131016,7.12601764 L39.9352703,7.13341182 L39.9352703,7.13341182 Z"></path>
                                <polygon points="11.0191283 13.8391936 8.28421914 13.8391936 9.85052667 3.56005115 6.3506651 13.8391936 4.47629645 13.8391936 4.24970809 3.62043695 2.59969906 13.8391936 0.0381361835 13.8391936 2.17524829 0.462382716 6.11664761 0.462382716 6.22511286 8.73992063 8.88548312 0.462382716 13.1391534 0.462382716"></polygon>
                                <path d="M18.0663978,8.99378748 C17.7769095,8.95952778 17.6496238,8.94695767 17.4534949,8.94695767 C15.9025409,8.94695767 15.1165393,9.50866887 15.1165393,10.607444 C15.1165393,11.2847509 15.5028539,11.7163245 16.1004033,11.7163245 C17.2137817,11.7163245 18.0208325,10.607444 18.0663978,8.99378748 L18.0663978,8.99378748 Z M20.0571561,13.8391936 L17.790282,13.8391936 L17.8398095,12.7098558 C17.1489007,13.6104669 16.2259555,14.0282381 14.9716713,14.0282381 C13.4833696,14.0282381 12.4673127,12.8160855 12.4673127,11.0646508 C12.4673127,8.40915432 14.242874,6.86746781 17.2784151,6.86746781 C17.5884574,6.86746781 17.9844298,6.89137566 18.3917936,6.94806437 C18.4772285,6.58821429 18.5002588,6.43293651 18.5002588,6.24216667 C18.5002588,5.52369885 18.0245471,5.25110009 16.7415369,5.25110009 C15.9671743,5.25110009 15.0781555,5.36842108 14.4655002,5.56190212 L14.0848812,5.67158245 L13.8451681,5.74207363 L14.2218248,3.30248721 C15.5885365,2.8797866 16.4884513,2.71686817 17.5027748,2.71686817 C19.8550839,2.71686817 21.1016914,3.82155864 21.1016914,5.90622443 C21.1016914,6.44772487 21.0618217,6.84947531 20.8753506,8.06409259 L20.302565,11.9181856 L20.2092056,12.6142244 L20.1388765,13.1685414 L20.0913301,13.5473699 L20.0571561,13.8391936 L20.0571561,13.8391936 Z"></path>
                                <path d="M62.9898315,8.99378748 C62.7050483,8.95952778 62.5728098,8.94695767 62.3816336,8.94695767 C60.8244887,8.94695767 60.0360107,9.50866887 60.0360107,10.607444 C60.0360107,11.2847509 60.4265351,11.7163245 61.0243322,11.7163245 C62.142911,11.7163245 62.9407992,10.607444 62.9898315,8.99378748 L62.9898315,8.99378748 Z M64.9825709,13.8391936 L62.712725,13.8391936 L62.7654718,12.7098558 C62.0750583,13.6104669 61.1501321,14.0282381 59.8975813,14.0282381 C58.4092796,14.0282381 57.3890129,12.8160855 57.3890129,11.0646508 C57.3890129,8.40915432 59.1628407,6.86746781 62.2043251,6.86746781 C62.5126339,6.86746781 62.9123209,6.89137566 63.3169607,6.94806437 C63.4009098,6.58821429 63.4254259,6.43293651 63.4254259,6.24216667 C63.4254259,5.52369885 62.9499618,5.25110009 61.6674469,5.25110009 C60.8883792,5.25110009 60.0018367,5.36842108 59.3943818,5.56190212 L59.0050956,5.67158245 L58.7683541,5.74207363 L59.1492206,3.30248721 C60.5176658,2.8797866 61.4155995,2.71686817 62.4227415,2.71686817 C64.7787652,2.71686817 66.0253726,3.82155864 66.0253726,5.90622443 C66.0253726,6.44772487 65.9783215,6.84947531 65.801013,8.06409259 L65.2237699,11.9181856 L65.1390778,12.6142244 L65.0625578,13.1685414 L65.012535,13.5473699 L64.9825709,13.8391936 L64.9825709,13.8391936 Z"></path>
                                <path d="M72.6291233,2.87189947 C72.5481458,2.85563228 72.458501,2.84380159 72.3537503,2.84380159 C71.4550737,2.84380159 70.9412257,3.31875441 70.0997533,4.61470767 L70.3439239,2.96161552 L67.8675484,2.96161552 L66.1935185,13.8391936 L68.9348663,13.8391936 C69.9194732,7.19083995 70.1780068,6.04277028 71.4877618,6.04277028 C71.5727015,6.04277028 71.5670058,6.03512963 71.6791856,6.05386155 C71.9273185,4.74311993 72.2621244,3.77941182 72.722235,2.9004903 L72.6291233,2.87189947 L72.6291233,2.87189947 Z"></path>
                            </g>
                            <g transform="translate(0.000000, 16.760141)" id="Shape">
                                <path d="M61.6377304,7.6285754 C61.6377304,10.0945344 60.8707969,11.5465049 59.6618304,11.5465049 C58.7792501,11.5736168 58.2441054,10.5946274 58.2441054,9.13033333 C58.2441054,7.3986164 59.0258971,5.43570811 60.280429,5.43570811 C61.2888091,5.43595459 61.6377304,6.49948413 61.6377304,7.6285754 L61.6377304,7.6285754 Z M64.3300459,7.67392637 C64.3300459,4.93290388 62.9692775,2.79943651 60.4116769,2.79943651 C57.4672663,2.79943651 55.5604572,5.39380776 55.5604572,9.21314815 C55.5604572,11.9475159 56.6874557,14.1832694 59.4751116,14.1832694 C62.2882743,14.1832694 64.3300459,12.2008898 64.3300459,7.67392637 L64.3300459,7.67392637 Z"></path>
                                <path d="M56.4403134,0.875224427 L56.0218059,3.77374295 C55.1117379,3.26231217 54.4495551,3.05009921 53.7338826,3.05009921 C51.8211301,3.05009921 50.4851255,5.12071605 50.4851255,8.06433907 C50.4851255,10.0965062 51.37984,11.3259118 52.8701228,11.3259118 C53.5055607,11.3259118 54.200927,11.1100018 55.0448758,10.6360348 L54.6016046,13.6876129 C53.6556291,13.9777112 53.038021,14.0770397 52.3354733,14.0770397 C49.5797626,14.0770397 47.863139,11.8600181 47.863139,8.30243166 C47.863139,3.51543959 50.2322875,0.174749118 53.625665,0.174749118 C54.064974,0.174749118 54.4537649,0.230205467 54.7751985,0.318442681 L55.8222101,0.614209877 C56.1453771,0.741882716 56.2122392,0.764311728 56.4403134,0.875224427 L56.4403134,0.875224427 Z"></path>
                                <path d="M39.513296,2.86697002 C39.4352901,2.8455269 39.3453977,2.83690035 39.2505525,2.83690035 C38.4204714,2.83690035 37.933616,3.31382496 37.1555388,4.60534171 L37.3818795,2.95520723 L35.0672113,2.95520723 L33.5046183,13.8340176 L36.0604855,13.8340176 C36.9799638,7.17900926 37.2231438,6.03389727 38.4491974,6.03389727 C38.5215075,6.03389727 38.5289367,6.03389727 38.6356685,6.0462209 C38.866219,4.73030335 39.1765089,3.76634877 39.6064077,2.88570194 L39.513296,2.86697002 L39.513296,2.86697002 Z"></path>
                                <path d="M72.9020199,13.7176825 L70.4868108,13.7176825 L70.6111249,12.6558783 C69.9085771,13.4931459 69.1777987,13.8638408 68.2429669,13.8638408 C66.3804849,13.8638408 65.1507168,12.0653298 65.1507168,9.34624339 C65.1507168,5.73418651 67.059507,2.67053131 69.3162281,2.67053131 C70.3119787,2.67053131 71.0675209,3.13882937 71.7656111,4.16957804 L72.3294819,0.344568783 L74.8454794,0.344568783 L72.9020199,13.7176825 L72.9020199,13.7176825 Z M69.1230708,11.1588034 C70.3270846,11.1588034 71.1571657,9.64841887 71.1571657,7.49350838 C71.1571657,6.10709965 70.6829398,5.3627522 69.8038264,5.3627522 C68.6411681,5.3627522 67.8150492,6.87486199 67.8150492,9.02237831 C67.8150492,10.4398426 68.2583205,11.1588034 69.1230708,11.1588034 L69.1230708,11.1588034 Z"></path>
                                <path d="M15.5432188,13.6728245 C14.6737633,13.9713029 13.8265953,14.1157359 12.9246993,14.1157359 C10.0699335,14.1157359 8.57989838,12.4402147 8.57989838,9.2442037 C8.57989838,5.51112875 10.4753162,2.75728968 13.0482704,2.75728968 C15.1551707,2.75728968 16.4986045,4.29675794 16.4986045,6.71366887 C16.4986045,7.51248677 16.4072262,8.29528395 16.1885623,9.39824912 L11.0936672,9.39824912 C11.0783137,9.5606746 11.072618,9.64127116 11.072618,9.73616314 C11.072618,11.0045115 11.835837,11.6443545 13.318443,11.6443545 C14.2319779,11.6443545 15.0578492,11.432388 15.9733652,10.9554634 L15.5432188,13.6728245 L15.5432188,13.6728245 Z M14.1138548,7.20069885 C14.1254938,6.97073986 14.1329229,6.78761067 14.1329229,6.64786067 C14.1329229,5.76080556 13.683956,5.24173413 12.9244516,5.24173413 C12.1079906,5.24173413 11.5272806,5.93999118 11.2935107,7.18936111 L14.1138548,7.20069885 L14.1138548,7.20069885 Z"></path>
                                <path d="M45.9506342,13.6728245 C45.0784547,13.9713029 44.2295532,14.1157359 43.3308765,14.1157359 C40.4704151,14.1157359 38.982361,12.4402147 38.982361,9.2442037 C38.982361,5.51112875 40.87976,2.75728968 43.4507331,2.75728968 C45.5581287,2.75728968 46.9057723,4.29675794 46.9057723,6.71366887 C46.9057723,7.51248677 46.8104318,8.29528395 46.5840911,9.39824912 L41.5003397,9.39824912 C41.4847385,9.5606746 41.4753283,9.64127116 41.4753283,9.73616314 C41.4753283,11.0045115 42.2368138,11.6443545 43.7191722,11.6443545 C44.6329548,11.6443545 45.4610548,11.432388 46.3768184,10.9554634 L45.9506342,13.6728245 L45.9506342,13.6728245 Z M44.5133458,7.20069885 C44.5301852,6.97073986 44.5395954,6.78761067 44.5395954,6.64786067 C44.5395954,5.76080556 44.086914,5.24173413 43.3306289,5.24173413 C42.5139202,5.24173413 41.9339531,5.93999118 41.6977068,7.18936111 L44.5133458,7.20069885 L44.5133458,7.20069885 Z"></path>
                                <path d="M81.6243099,13.6728245 C80.7407391,13.9713029 79.9032289,14.1157359 78.997866,14.1157359 C76.1433479,14.1157359 74.6493505,12.4402147 74.6493505,9.2442037 C74.6493505,5.51112875 76.5507116,2.75728968 79.1214371,2.75728968 C81.2283374,2.75728968 82.570533,4.29675794 82.570533,6.71366887 C82.570533,7.51248677 82.4828693,8.29528395 82.2562809,9.39824912 L77.1673291,9.39824912 C77.1494992,9.5606746 77.1457847,9.64127116 77.1457847,9.73616314 C77.1457847,11.0045115 77.9094989,11.6443545 79.3921049,11.6443545 C80.3066304,11.6443545 81.1310159,11.432388 82.0487606,10.9554634 L81.6243099,13.6728245 L81.6243099,13.6728245 Z M80.1872691,7.20069885 C80.1986605,6.97073986 80.2060896,6.78761067 80.2060896,6.64786067 C80.2060896,5.76080556 79.7591038,5.24173413 78.997866,5.24173413 C78.1811573,5.24173413 77.6031712,5.93999118 77.3664297,7.18936111 L80.1872691,7.20069885 L80.1872691,7.20069885 Z"></path>
                                <path d="M7.97640565,3.35868298 C7.47593016,3.02545194 6.7983938,2.73436772 5.84102702,2.73436772 C4.8076355,2.73436772 3.97606859,2.94756658 3.97606859,4.0419052 C3.97606859,5.97449735 7.74412163,5.2528254 7.74412163,9.39134788 C7.74412163,13.1609008 5.25709766,14.1381649 3.00731047,14.1381649 C2.00635947,14.1381649 0.854844841,13.808631 0.00619093888,13.4332531 L0.617112788,10.6633933 C1.12922725,11.126269 2.16237113,11.4434793 3.00731047,11.4434793 C3.81238016,11.4434793 5.07409351,11.2246116 5.07409351,9.82612566 C5.07409351,7.63621605 1.30802157,8.4508082 1.30802157,4.60706702 C1.30802157,1.09088801 3.50803361,0.0377103175 5.63028746,0.0377103175 C6.8253863,0.0377103175 7.94817497,0.212212963 8.60664323,0.647730159 L7.97640565,3.35868298 L7.97640565,3.35868298 Z"></path>
                                <path d="M23.0280639,13.668881 C22.5008435,13.921269 21.79681,14.0873915 20.7577228,14.0873915 C18.5235368,14.0873915 17.1380046,11.8647011 17.1380046,9.15867769 C17.1380046,5.61711199 19.1421354,2.79179586 22.0917463,2.79179586 C22.7351087,2.79179586 23.7169916,3.06883113 24.4916019,3.51568607 L23.9262453,6.11375441 C23.3779758,5.75513668 22.8071712,5.52714947 22.2192796,5.52714947 C20.852568,5.52714947 19.8763807,6.7738082 19.8763807,9.00758995 C19.8763807,10.2936843 20.5843765,11.3485873 21.703203,11.3485873 C22.3691004,11.3485873 22.8376306,11.2088373 23.4106639,10.8753598 L23.0280639,13.668881 L23.0280639,13.668881 Z"></path>
                                <path d="M32.5898452,10.9448651 C32.4585973,11.8807218 32.3367596,12.78922 32.2642018,13.7654982 L29.8034274,13.7654982 L30.0109477,12.0071623 L29.9859363,12.0071623 C29.2152882,13.2023082 28.4178953,14.0159145 27.0246864,14.0159145 C25.4796757,14.0159145 24.6424131,12.3978214 24.6424131,10.2845648 C24.6424131,9.5562381 24.6879784,9.14512169 24.8514192,8.00765035 L25.5480237,2.97270679 L28.2866474,2.97270679 L27.5519068,8.02243871 C27.4776155,8.56492504 27.3731124,9.10297487 27.3731124,9.66419312 C27.3731124,10.3005855 27.6643342,10.9443721 28.4027894,10.9049365 C29.5253304,10.9049365 30.1877609,9.53824559 30.3762131,7.94356746 L31.1320029,2.97246032 L33.7829629,2.97246032 L32.5898452,10.9448651 L32.5898452,10.9448651 Z"></path>
                                <g transform="translate(82.958581, 11.337743)">
                                    <polygon points="1.21689095 2.2963858 0.802840954 2.2963858 0.802840954 0.492205908 0.204053346 0.492205908 0.204053346 0.105736772 1.81567856 0.105736772 1.81567856 0.492205908 1.21689095 0.492205908"></polygon>
                                    <polygon points="3.96220088 2.2963858 3.57539102 2.2963858 3.57539102 0.465093915 3.569943 0.465093915 3.20022013 2.2963858 2.79458981 2.2963858 2.43353426 0.465093915 2.42783859 0.465093915 2.42783859 2.2963858 2.04201928 2.2963858 2.04201928 0.105736772 2.64575964 0.105736772 3.00508173 1.83277072 3.01052976 1.83277072 3.36341328 0.105736772 3.96220088 0.105736772"></polygon>
                                </g>
                            </g>
                        </g>
                    </g>
                </g>
            </g>
        </g>
    </g>
</svg>