<?xml version="1.0" encoding="UTF-8"?>
<svg width="167px" height="35px" viewBox="0 0 167 35" version="1.1" xmlns="http://www.w3.org/2000/svg" xmlns:xlink="http://www.w3.org/1999/xlink">
    <!-- Generator: sketchtool 51.3 (57544) - http://www.bohemiancoding.com/sketch -->
    <title>8CD7E535-B088-4771-8319-7281084231D2</title>
    <desc>Created with sketchtool.</desc>
    <defs></defs>
    <g id="Checkout" stroke="none" stroke-width="1" fill="none" fill-rule="evenodd">
        <g id="Checkout-Confirm-Cash" transform="translate(-310.000000, -10.000000)">
            <g id="Header/Logo" transform="translate(310.000000, 10.000000)">
                <path d="M18.3329433,24.4468509 L18.3329433,33.5422688 L16.7331896,33.5422688 L16.7331896,24.8083354 C16.7331896,23.7588641 16.2194002,22.8609831 15.2735604,22.2779435 C14.806479,21.9864237 14.1992733,21.8348334 13.4869742,21.8348334 C12.1557923,21.8348334 10.8246105,22.3479083 10.1006344,22.8609831 L10.0072181,22.9192871 L10.0305722,23.035895 C10.1590195,23.6888994 10.2991439,24.551798 10.2991439,25.4730006 L10.310821,33.5422688 L8.67603622,33.5422688 L8.67603622,24.610102 C8.67603622,22.8726439 7.13466774,21.6599215 4.92770833,21.6599215 C4.09863892,21.6599215 3.22286137,21.8348334 2.39379196,22.1846572 L2.28869865,22.2313004 L2.28869865,33.5422688 L0.653913901,33.5422688 L0.653913901,24.8549786 C0.653913901,24.6567451 0.653913901,24.4585117 0.665590935,24.2486174 C0.677267969,23.1058598 0.688945003,21.916459 0.291925849,21.1585075 C1.55304552,20.6104502 3.35130874,20.2489657 4.92770833,20.2489657 C6.22385909,20.2489657 7.97541419,20.4821815 9.02634724,21.5549744 L9.13144055,21.6599215 L9.24821089,21.578296 C10.4626224,20.7620405 11.9105746,20.3072696 13.3468498,20.3072696 C14.9232494,20.3072696 16.3478475,20.8436661 17.2703332,21.7648687 C17.9826323,22.4878378 18.3446203,23.4090404 18.3329433,24.4468509 Z M27.7796638,20.2489657 C31.4112213,20.2489657 34.3538339,23.2574501 34.3538339,26.9422604 C34.3538339,30.6387315 31.4112213,33.6472159 27.7796638,33.6472159 C24.1597832,33.6472159 21.2054937,30.6387315 21.2054937,26.9422604 C21.2054937,23.2574501 24.1597832,20.2489657 27.7796638,20.2489657 Z M27.7831669,32.1546345 C30.5062512,32.1546345 32.7225522,29.8189778 32.7225522,26.9469247 C32.7225522,24.0760377 30.5074189,21.740381 27.7831669,21.740381 C25.0600826,21.740381 22.8449492,24.0760377 22.8449492,26.9469247 C22.8449492,29.8189778 25.0600826,32.1546345 27.7831669,32.1546345 Z M43.4724297,20.3597432 C44.5875864,20.3597432 45.6887307,20.6500969 46.6544214,21.2016524 L46.915987,21.3509105 L46.915987,16.0265928 L48.4760387,16.0265928 L48.4760387,32.1278147 L48.7224242,32.7971442 C46.9837138,33.5096186 45.5742958,33.6425516 43.4724297,33.6425516 C39.8747355,33.6425516 36.9484708,30.6632192 36.9484708,27.0005644 C36.9484708,23.3390756 39.8747355,20.3597432 43.4724297,20.3597432 Z M43.5494981,32.1686275 C44.8888539,32.1686275 45.9549671,32.0030442 46.8085583,31.6625491 L46.9183224,31.6182381 L46.9183224,23.0242342 L46.8470925,22.9717607 C45.8510415,22.2359647 44.6529778,21.8313352 43.4735974,21.8313352 C40.770364,21.8313352 38.5715785,24.1495007 38.5715785,26.9993983 C38.5715785,29.850462 40.770364,32.1686275 43.4724297,32.1686275 L43.5494981,32.1686275 Z M59.8798301,22.8726439 C59.144177,22.1263532 57.9647965,21.7182255 56.5752295,21.7182255 C55.6644208,21.7182255 54.695227,21.8931374 53.7960954,22.2196396 L53.6793251,22.2662827 L53.6793251,33.6005728 L52.1146025,33.6005728 L52.1146025,22.0797101 L51.6942293,21.0418995 C53.30566,20.5288247 54.9170907,20.2489657 56.3883969,20.2489657 C58.3734927,20.2489657 61.7948637,20.7737013 62.3086532,24.2602782 C62.3553613,24.5751196 62.3553613,24.8549786 62.3553613,25.16982 L62.3553613,33.6005728 L60.8023158,33.6005728 L60.8023158,25.391375 C60.8139928,24.3535645 60.5103899,23.5023267 59.8798301,22.8726439 Z M72.6416605,32.1942812 L72.4022813,32.3936808 C71.5008143,33.132975 70.3319432,33.5399366 69.1093577,33.5399366 C66.4224722,33.5399366 64.2353638,31.5844218 64.2353638,29.1799664 C64.2353638,26.7755111 66.4224722,24.8199962 69.1093577,24.8199962 C70.324937,24.8199962 71.4891372,25.2222936 72.3871012,25.9534252 L72.6451636,26.1633195 L72.6720208,25.832153 C72.7899588,24.3978755 72.5283933,23.3215844 71.8931626,22.6324316 C71.3711992,22.0668832 70.6215336,21.7800277 69.6675199,21.7800277 C68.5617048,21.7800277 67.222349,22.1834911 66.0476394,22.8656474 L65.4054026,21.5444797 C66.5707705,20.7223938 68.0607601,20.25363 69.5192216,20.25363 C70.9788509,20.25363 72.2446413,20.7293903 73.0842201,21.593455 C73.9214634,22.4551876 74.3243211,23.6574152 74.2799484,25.1639896 C74.2565943,25.9965702 74.2320725,26.7521895 74.2075507,27.5113071 C74.1841967,28.2237815 74.1620103,28.938588 74.1386562,29.7303558 C74.1690165,30.7996505 74.2309048,32.0240337 74.5672034,33.1271446 L72.9405926,33.604071 C72.7993005,33.236756 72.7327414,32.8461195 72.6848655,32.5044583 L72.6416605,32.1942812 Z M69.2915195,32.1511363 C71.2088884,32.1511363 72.7677725,30.8183077 72.7677725,29.1799664 C72.7677725,27.5416251 71.2088884,26.2087966 69.2915195,26.2087966 C67.3729828,26.2087966 65.8140987,27.5416251 65.8140987,29.1799664 C65.8140987,30.8183077 67.3741505,32.1511363 69.2915195,32.1511363 Z M89.3736824,34.6255564 L82.6185183,26.6017653 L82.6185183,33.9352375 L79.3349364,33.9352375 L79.3349364,14.6237995 L82.6185183,14.6237995 L82.6185183,21.7462114 L88.9789987,13.9999471 L91.5946543,15.8983241 L84.8371547,24.0690412 L92.0068536,32.5324442 L89.3736824,34.6255564 Z M124.213281,34.2967221 C121.421302,34.2967221 119.54597,32.2700764 119.54597,29.2545955 L119.54597,22.8784743 L117.430092,22.8784743 L117.430092,19.9084705 L119.54597,19.9084705 L119.54597,15.9134831 L122.631043,15.9134831 L122.631043,19.9084705 L127.086999,19.9084705 L127.086999,22.8784743 L122.631043,22.8784743 L122.631043,29.1251607 C122.631043,30.4381659 123.287292,31.2229372 124.387269,31.2229372 C124.894052,31.2229372 125.320264,31.0561879 126.121308,30.1769642 L126.574377,29.6790483 L128.501088,32.0135389 L128.147274,32.3878504 C126.866303,33.7428344 125.725457,34.2967221 124.213281,34.2967221 Z M111.046257,34.2967221 C109.170926,34.2967221 107.7148,33.7941419 106.02163,32.5615962 L105.560387,32.2257654 L107.27224,29.7525113 L107.74516,30.0498615 C109.203621,30.9652337 110.067722,31.2742447 111.168866,31.2742447 C112.55493,31.2742447 113.522956,30.7401804 113.522956,29.9763985 C113.522956,29.5239598 113.522956,28.9607435 110.893288,28.3800361 C107.61788,27.6290811 106.028636,26.2041323 106.028636,24.022398 C106.028636,21.4418647 108.399074,19.4956785 111.542531,19.4956785 C113.190161,19.4956785 114.566883,19.9924282 116.146786,21.1561753 L116.595184,21.4873418 L114.875157,24.0538822 L114.383554,23.6935637 C113.017341,22.6930677 112.314383,22.5169898 111.342854,22.5169898 C110.085238,22.5169898 109.13823,23.0860364 109.13823,23.8416558 C109.13823,24.3045892 109.13823,24.7838478 111.536693,25.390209 C114.682486,26.1808107 116.63255,27.2151229 116.63255,29.9250911 C116.633718,32.4986279 114.336846,34.2967221 111.046257,34.2967221 Z M140.684905,32.8076389 L140.879911,33.4244948 L137.968827,34.1229763 L137.803013,33.6064032 C137.757473,33.4641415 137.727112,33.3848481 137.702591,33.3218798 C137.686243,33.2764027 137.671063,33.23559 137.655882,33.1936111 C136.469496,33.9958736 135.485122,34.2943899 134.177294,34.2943899 C131.204321,34.2943899 128.962331,32.1266486 128.962331,29.2522633 C128.962331,26.1819768 131.302408,23.9524333 134.526437,23.9524333 C135.497967,23.9524333 136.287334,24.1460024 137.173621,24.6322575 C137.101223,23.0009126 136.388924,22.3863889 134.628028,22.3863889 C133.703206,22.3863889 132.923181,22.6347638 131.409837,23.4055421 L130.862184,23.6877333 L129.75053,21.1060339 L130.20827,20.8413339 C131.609514,19.9935943 133.272324,19.5458199 134.936301,19.5458199 C138.327312,19.5458199 140.437352,21.5083312 140.437352,24.7943425 L140.437352,30.645728 C140.437352,31.676542 140.419836,32.1208182 140.684905,32.8076389 Z M134.679406,31.3512059 C136.188079,31.3512059 137.282217,30.6095796 137.282217,29.2732528 C137.282217,28.0138872 136.146042,27.3259005 134.580152,27.3259005 L134.456375,27.3259005 C133.129864,27.3259005 132.052074,28.0978449 132.052074,29.3257263 C132.052074,30.7156928 133.058634,31.3512059 134.679406,31.3512059 Z M104.321454,32.8076389 L104.434721,33.4244948 L101.443065,34.1229763 L101.276083,33.6064032 C101.230543,33.4641415 101.200182,33.3848481 101.175661,33.3218798 C101.158145,33.2764027 101.142965,33.23559 101.128953,33.1936111 C99.9425659,33.9958736 98.9581919,34.2943899 97.6503641,34.2943899 C94.678559,34.2943899 92.4365684,32.1266486 92.4365684,29.2522633 C92.4365684,26.1819768 94.776646,23.9524333 98.0006751,23.9524333 C98.9722043,23.9524333 99.7615718,24.1460024 100.649026,24.6322575 C100.577797,23.0009126 99.8666651,22.3863889 98.1057684,22.3863889 C97.182115,22.3863889 96.40676,22.6347638 94.8934164,23.4055421 L94.3562728,23.6877333 L93.2644702,21.1060339 L93.7630795,20.8413339 C95.1631559,19.9935943 96.9088724,19.5458199 98.5728498,19.5458199 C101.962693,19.5458199 104.238547,21.5083312 104.238547,24.7943425 L104.238547,30.645728 C104.238547,31.676542 104.056385,32.1208182 104.321454,32.8076389 Z M98.1478057,31.3512059 C99.6553108,31.3512059 100.750617,30.6095796 100.750617,29.2732528 C100.750617,28.0138872 99.6144412,27.3259005 98.048551,27.3259005 L97.9247744,27.3259005 C96.5982633,27.3259005 95.5204731,28.0978449 95.5204731,29.3257263 C95.5204731,30.7156928 96.5270334,31.3512059 98.1478057,31.3512059 Z" id="logo-mk" fill="#FFFFFF" fill-rule="nonzero"></path>
                <path d="M166.686157,13.7375793 L166.683821,13.7375793 C153.32763,13.7422436 143.79917,18.9021442 148.148865,32.323716 L148.150033,32.3283803 L148.151201,32.3283803 C161.27969,36.9472201 166.488815,27.3282326 166.686157,13.7410775 L166.686157,13.7375793 Z M152.621169,26.3837085 C153.535481,26.4769948 154.20224,27.3072432 154.109991,28.2366083 C154.017742,29.1671396 153.202685,29.8457977 152.288374,29.7513453 C151.374062,29.6568928 150.707303,28.8278105 150.799552,27.8972793 C150.8918,26.9690802 151.708025,26.2904221 152.621169,26.3837085 Z" id="logo-green-leave" fill="#69BE28" fill-rule="evenodd"></path>
                <path d="M140.787663,0 L140.788831,0 C149.763799,0.00233215844 156.167484,3.47141784 153.244723,12.4898745 L153.243555,12.4933728 C144.421556,15.5974757 140.920781,9.13389854 140.787663,0.00233215844 L140.787663,0 Z M150.237886,8.49838536 C149.623675,8.56135364 149.175276,9.11873951 149.237165,9.74375797 C149.299053,10.3687764 149.847874,10.8247134 150.460918,10.7617451 C151.07513,10.6987769 151.523528,10.141391 151.46164,9.51637252 C151.400919,8.89135406 150.852098,8.43541709 150.237886,8.49838536 Z" id="logo-purple-leave" fill="#D10074" fill-rule="evenodd"></path>
            </g>
        </g>
    </g>
</svg>