<?xml version="1.0" encoding="UTF-8"?>
<svg width="77px" height="43px" viewBox="0 0 77 43" version="1.1" xmlns="http://www.w3.org/2000/svg" xmlns:xlink="http://www.w3.org/1999/xlink">
    <!-- Generator: sketchtool 51.3 (57544) - http://www.bohemiancoding.com/sketch -->
    <title>F224AE21-1D07-400A-B802-AE0527B584BD</title>
    <desc>Created with sketchtool.</desc>
    <defs></defs>
    <g id="Checkout" stroke="none" stroke-width="1" fill="none" fill-rule="evenodd" opacity="0.437783062">
        <g id="Checkout-Confirm-Cash" transform="translate(-1315.000000, -1067.000000)" fill="#626F77">
            <g id="Group-10" transform="translate(1315.000000, 1067.000000)">
                <g id="verified-by-visa">
                    <g id="Layer_1">
                        <path d="M65.301925,28.5225983 C65.1964034,29.3660598 65.0568188,30.1760769 64.8839115,30.9526496 C64.1578491,30.7174359 63.3196006,30.3407265 62.1366484,30.4193761 C61.4305796,30.4664188 60.5952931,30.7354444 60.5841856,31.3675812 C60.5715971,32.0677094 61.7308532,32.4841111 62.3758306,32.7902564 C63.5387893,33.342641 64.7869057,34.0787863 64.8839115,35.5764359 C64.958332,36.7278803 64.4199869,37.7293761 63.8090726,38.3034444 C62.1814488,39.8304957 58.5700197,39.9918376 56.1048879,39.0149658 C56.2585421,38.1990684 56.3981268,37.3692051 56.5232717,36.5253761 C57.4774087,36.9281795 58.7880976,37.4721111 60.2257825,37.2960684 C60.8807567,37.2155812 61.6823503,36.8366667 61.6590245,36.1699829 C61.6305152,35.3562906 60.1006377,34.8726325 59.3297749,34.4507179 C58.4341375,33.960812 57.4148363,33.1456496 57.3592986,31.9015897 C57.3219033,31.0728291 57.6469837,30.2966239 58.0761047,29.7673932 C59.3479172,28.1973419 62.6187153,27.6390769 65.301925,28.5225983 Z" id="Shape"></path>
                        <polygon id="Shape" points="36.0328359 12.6467778 39.3254789 12.6467778 37.2983541 25.3292051 34.005341 25.3292051"></polygon>
                        <path d="M24.6239189,12.6460427 L29.6652577,12.6460427 C32.8727429,12.6460427 33.7058078,14.4796068 33.3559206,16.6692991 C33.0634222,18.498453 31.7397746,19.7186239 30.0203285,20.1530342 L33.2137441,25.3292051 L29.080261,25.3292051 L26.6854769,20.3485556 L25.8894371,25.3292051 L22.5964239,25.3292051 L24.6239189,12.6460427 L24.6239189,12.6460427 Z M27.5137286,15.1679744 L27.0050036,18.3499744 L27.9572894,18.3499744 C28.8825469,18.3499744 29.7581907,17.6344103 29.9036994,16.7586068 L29.9036994,16.7586068 C30.0488378,15.883906 29.410525,15.1676068 28.4852675,15.1676068 L27.5137286,15.1676068 L27.5137286,15.1679744 Z" id="Shape"></path>
                        <polygon id="Shape" points="51.0702136 12.6467778 54.3628566 12.6467778 52.3357319 25.3292051 49.0427187 25.3292051"></polygon>
                        <polygon id="Shape" points="56.8639027 12.6460427 64.0937957 12.6460427 63.6531969 15.4039231 59.7166873 15.4039231 59.3701323 17.5711966 63.1118898 17.5711966 62.6716612 20.3287094 58.9291632 20.3287094 58.5707602 22.5720598 62.5072698 22.5720598 62.0663007 25.3292051 54.8371482 25.3292051"></polygon>
                        <polygon id="Shape" points="15.4368786 12.6460427 22.6660311 12.6460427 22.2250621 15.4039231 18.2889228 15.4039231 17.9423677 17.5711966 21.6844955 17.5711966 21.2435265 20.3287094 17.501769 20.3287094 17.1429956 22.5720598 21.0795052 22.5720598 20.6389064 25.3292051 13.4093837 25.3292051"></polygon>
                        <polygon id="Shape" points="41.8191199 12.6460427 49.1293574 12.6460427 48.6887586 15.4039231 44.6707938 15.4039231 44.3190553 17.5711966 47.9749145 17.5711966 47.5324645 20.3287094 43.8780862 20.3287094 43.0787141 25.3292051 39.7912547 25.3292051"></polygon>
                        <path d="M66.0313196,12.6460427 L70.3225297,12.6460427 C75.4349568,12.6460427 76.6001369,16.4840684 76.1995253,18.9909316 C75.6267468,22.5716923 72.4107459,25.3292051 68.2950348,25.3292051 L64.0038247,25.3292051 L66.0313196,12.6460427 L66.0313196,12.6460427 Z M68.8833638,15.4039231 L69.563515,15.4039231 C72.0804819,15.4039231 73.064239,17.166188 72.7932152,18.8659744 C72.4281477,21.1464444 70.7764576,22.5716923 68.6178937,22.5716923 L67.7374366,22.5716923 L68.8833638,15.4039231 L68.8833638,15.4039231 Z" id="Shape"></path>
                        <path d="M0,10.9183248 L6.09137091,10.9183248 L6.81484153,20.132453 C10.8450246,13.2079829 14.9411124,6.54482051 19.0671906,0 L21.0535876,0 C16.6857356,8.36184615 12.3730509,16.7777179 8.19587809,25.3292051 L3.72398545,25.3292051 L2.63396624,15.1679744 C2.3633127,12.6460427 1.85014469,11.575453 0,11.3042222 L0,10.9183248 L0,10.9183248 Z" id="Shape"></path>
                        <polygon id="Shape" points="2.30629403 5.67857265 7.49980605 7.8638547 7.95114212 13.604906 8.3350925 13.604906 13.0494996 5.68224786 13.0494996 5.28458974 2.30555353 5.28458974"></polygon>
                        <path d="M26.3170771,34.4135983 C27.1046012,34.4135983 27.639614,35.1298974 27.5118774,36.0130513 C27.384511,36.8954701 26.6428981,37.6117692 25.855374,37.6117692 C25.0678499,37.6117692 24.5328371,36.8958376 24.6602035,36.0130513 C24.7879401,35.1298974 25.5299233,34.4135983 26.3170771,34.4135983 L26.3170771,34.4135983 Z M23.6571933,28.311641 L25.7883586,28.311641 L25.0700714,33.3106667 C25.6787642,32.7274103 26.4233392,32.3668718 27.2549231,32.3668718 C28.9651129,32.3668718 30.0858629,34.0023419 29.7841083,36.0207692 C29.4819834,38.0391966 27.8699102,39.6761368 26.1600907,39.6761368 C25.3170289,39.6761368 24.7127791,39.2994274 24.3010599,38.6650855 L24.1873929,39.4578291 L22.0558573,39.4578291 L23.6571933,28.311641 L23.6571933,28.311641 Z" id="Shape"></path>
                        <polygon id="Shape" points="29.9670123 32.5366667 32.5243366 32.5366667 33.6680422 36.0795726 35.889919 32.5366667 38.361345 32.5366667 31.8752865 42.8772479 29.4042307 42.8772479 32.1389052 38.5169744"></polygon>
                        <polygon id="Shape" points="51.0691029 39.4541538 52.9422031 28.3083333 56.0067714 28.3083333 54.1336711 39.4541538"></polygon>
                        <path d="M48.5073356,28.2851795 C47.450639,30.7538205 46.5498181,33.3768205 45.4616501,35.8134872 L45.1424937,34.3511197 C45.141383,34.3456068 45.1384209,34.3389915 45.1373102,34.3334786 L45.1913669,34.5936838 C44.9551467,33.824094 44.553054,33.0986068 44.0395157,32.4330256 C44.0258164,32.4157521 44.0124874,32.3984786 43.9987881,32.3812051 C43.9088171,32.266906 43.8132923,32.155547 43.7166568,32.0445556 C43.6581571,31.9769316 43.5985467,31.9093077 43.5374552,31.8420513 C42.7954721,31.036812 41.8957619,30.3414615 40.9464381,29.7901795 L43.6703754,39.4291624 L46.9548728,39.4291624 C48.5010413,35.6683162 50.169763,32.0291197 51.7322226,28.284812 C50.6573837,28.2851795 49.5821745,28.2851795 48.5073356,28.2851795 Z" id="Shape"></path>
                        <path d="M42.7232731,28.2870171 L37.7134056,28.2870171 L37.7134056,28.5295812 C40.5969211,29.0878462 44.2379703,31.4892308 45.1913669,34.5940513 L44.1161577,29.402812 C43.969168,28.6027179 43.4078674,28.2870171 42.7232731,28.2870171 Z" id="Shape"></path>
                        <path d="M75.6330411,39.4890684 L72.8261676,39.4890684 C72.6447446,38.958 72.5940202,38.2968291 72.4081541,37.7698034 L68.5864224,37.7698034 L67.8696163,39.4890684 L64.6447293,39.4890684 L68.8248641,29.9452735 C69.0096194,29.5262991 69.3413643,28.9548034 69.4816895,28.7001111 C69.6942136,28.3142137 70.5158008,28.2851795 70.8649476,28.2851795 L73.1842004,28.2851795 L75.6330411,39.4890684 Z M70.9826874,31.373094 L69.4220791,35.517265 L71.9453403,35.517265 L70.9826874,31.373094 Z" id="Shape"></path>
                    </g>
                </g>
            </g>
        </g>
    </g>
</svg>