<svg width="88" height="32" xmlns="http://www.w3.org/2000/svg"><path d="M82.546 12.623c0-.946.736-1.711 1.636-1.711.904 0 1.633.765 1.633 1.71 0 .948-.729 1.713-1.633 1.713-.9 0-1.636-.765-1.636-1.712zm1.636 1.307c.687 0 1.249-.587 1.249-1.307 0-.716-.562-1.298-1.249-1.298-.685 0-1.249.582-1.249 1.298 0 .72.564 1.307 1.249 1.307zm-.223-.557h-.335v-1.508h.608c.123 0 .262.008.368.084a.467.467 0 0 1 .183.378.4.4 0 0 1-.247.38l.262.666h-.372l-.222-.59h-.245v.59zm0-.847h.187c.069 0 .148.002.206-.032.056-.036.082-.11.082-.174 0-.057-.033-.125-.082-.152-.05-.033-.151-.026-.21-.026h-.183v.384zM59.153 1.244l-.449 2.902c-.972-.515-1.687-.717-2.45-.717-2.038 0-3.48 2.062-3.48 5.005 0 2.033.968 3.258 2.559 3.258.675 0 1.417-.215 2.326-.689l-.479 3.054c-1.004.287-1.66.39-2.419.39-2.952 0-4.788-2.217-4.788-5.774 0-4.784 2.537-8.126 6.166-8.126.469 0 .888.046 1.228.144l1.128.294c.336.133.411.153.658.26zm-9.086 1.989a1.511 1.511 0 0 0-.28-.028c-.902 0-1.412.475-2.25 1.77l.244-1.652H45.3L43.621 14.2h2.75c.984-6.648 1.235-7.796 2.554-7.796.08 0 .088 0 .2.011.243-1.31.576-2.274 1.036-3.153l-.094-.029zM33.678 14.067c-.744.247-1.332.36-1.964.36-1.397 0-2.16-.848-2.16-2.394 0-.303.023-.63.078-.975l.17-1.06.125-.867 1.188-7.422h2.721l-.312 1.614h1.4l-.384 2.644h-1.397l-.723 4.54c-.025.2-.046.348-.046.45 0 .557.286.806.933.806.315 0 .553-.033.736-.101l-.365 2.405zm-10.79-7.305c0 1.373.635 2.323 2.074 3.032 1.102.546 1.277.705 1.277 1.2 0 .676-.489.989-1.566.989-.813 0-1.572-.135-2.448-.436l-.378 2.51.124.025.502.106c.162.035.4.065.714.1.652.06 1.153.089 1.507.089 2.872 0 4.2-1.154 4.2-3.632 0-1.488-.553-2.369-1.922-3.028-1.142-.541-1.271-.67-1.271-1.174 0-.59.453-.893 1.332-.893.536 0 1.264.063 1.958.162l.39-2.512a17.168 17.168 0 0 0-2.402-.215c-3.046 0-4.103 1.67-4.091 3.677zM80.957 14.2h-2.591l.136-1.065c-.755.842-1.53 1.209-2.53 1.209-2.002 0-3.314-1.796-3.314-4.515 0-3.618 2.039-6.673 4.46-6.673 1.064 0 1.868.458 2.626 1.49L80.34.823h2.698L80.957 14.2zm-4.04-2.56c1.278 0 2.172-1.512 2.172-3.665 0-1.383-.51-2.136-1.456-2.136-1.24 0-2.122 1.518-2.122 3.659 0 1.424.475 2.141 1.405 2.141zM42.35 13.972a9.104 9.104 0 0 1-2.814.437c-3.052 0-4.647-1.672-4.647-4.87 0-3.738 2.028-6.49 4.786-6.49 2.25 0 3.694 1.543 3.694 3.96 0 .8-.097 1.58-.34 2.683h-5.444a2.153 2.153 0 0 0-.026.337c0 1.272.814 1.912 2.407 1.912.977 0 1.856-.21 2.84-.692l-.457 2.723zm-1.537-6.477a7.84 7.84 0 0 0 .02-.55c0-.89-.482-1.409-1.297-1.409-.868 0-1.49.693-1.745 1.951l3.022.008zM11.897 14.2H9.162L10.73 3.921l-3.5 10.28H5.354L5.128 3.98 3.478 14.2H.916L3.053.822h3.942L7.103 9.1 9.763.823h4.254zm7.047-4.845a4.598 4.598 0 0 0-.613-.047c-1.55 0-2.336.562-2.336 1.66 0 .678.386 1.11.983 1.11 1.114 0 1.92-1.11 1.966-2.723zm1.991 4.845h-2.267l.05-1.129c-.691.9-1.614 1.318-2.868 1.318-1.489 0-2.505-1.212-2.505-2.963 0-2.656 1.776-4.197 4.811-4.197.31 0 .706.023 1.114.08.085-.36.108-.515.108-.706 0-.718-.475-.99-1.758-.99-.775 0-1.664.117-2.277.31l-.38.11-.24.07.377-2.44c1.367-.422 2.266-.585 3.28-.585 2.353 0 3.6 1.105 3.6 3.19 0 .54-.04.943-.227 2.157l-.572 3.854-.094.696-.07.555-.048.378-.034.292zm42.933-4.845a4.54 4.54 0 0 0-.608-.047c-1.558 0-2.346.562-2.346 1.66 0 .678.39 1.11.988 1.11 1.119 0 1.917-1.11 1.966-2.723zM65.86 14.2h-2.27l.052-1.129c-.69.9-1.615 1.318-2.867 1.318-1.489 0-2.509-1.212-2.509-2.963 0-2.656 1.774-4.197 4.815-4.197.309 0 .708.023 1.113.08.084-.36.108-.515.108-.706 0-.718-.475-.99-1.758-.99-.779 0-1.665.117-2.273.31l-.389.11-.237.07.381-2.44c1.369-.422 2.267-.585 3.274-.585 2.356 0 3.602 1.105 3.602 3.19 0 .54-.047.943-.224 2.157l-.577 3.854-.085.696-.076.555-.05.378-.03.292zm7.647-10.967a1.372 1.372 0 0 0-.275-.028c-.899 0-1.413.475-2.254 1.77l.244-1.652h-2.476L67.072 14.2h2.74c.985-6.648 1.244-7.796 2.554-7.796.085 0 .079-.008.191.011.248-1.31.583-2.274 1.043-3.153l-.093-.029zM62.02 24.75c0 2.466-.766 3.918-1.975 3.918-.883.027-1.418-.952-1.418-2.416 0-1.732.782-3.695 2.036-3.695 1.009 0 1.357 1.064 1.357 2.193zm2.693.045c0-2.74-1.361-4.874-3.919-4.874-2.944 0-4.85 2.594-4.85 6.413 0 2.735 1.126 4.97 3.914 4.97 2.813 0 4.855-1.982 4.855-6.509zm-7.89-6.799l-.418 2.899c-.91-.511-1.573-.724-2.288-.724-1.913 0-3.25 2.071-3.25 5.015 0 2.032.896 3.261 2.386 3.261.635 0 1.33-.216 2.175-.69l-.444 3.052c-.946.29-1.563.39-2.266.39-2.756 0-4.472-2.218-4.472-5.775 0-4.787 2.369-8.128 5.762-8.128.44 0 .828.055 1.15.144l1.047.295c.323.128.39.15.618.261zm-16.927 1.992a1.007 1.007 0 0 0-.263-.03c-.83 0-1.317.477-2.095 1.769l.227-1.65H35.45l-1.563 10.878h2.556c.92-6.655 1.163-7.8 2.389-7.8.072 0 .08 0 .186.012.23-1.315.541-2.28.971-3.16l-.093-.019zm33.389 10.851H70.87l.124-1.062c-.703.837-1.433 1.208-2.368 1.208-1.863 0-3.093-1.798-3.093-4.518 0-3.612 1.91-6.675 4.166-6.675.996 0 1.751.468 2.45 1.499l.563-3.825h2.516l-1.943 13.373zm-3.78-2.559c1.205 0 2.035-1.51 2.035-3.665 0-1.387-.474-2.131-1.353-2.131-1.163 0-1.99 1.512-1.99 3.66 0 1.417.444 2.136 1.309 2.136zm-53.579 2.514a7.9 7.9 0 0 1-2.619.443c-2.854 0-4.344-1.676-4.344-4.872 0-3.733 1.895-6.486 4.468-6.486 2.107 0 3.45 1.539 3.45 3.956 0 .799-.091 1.582-.31 2.685h-5.095a3.358 3.358 0 0 0-.02.337c0 1.269.763 1.909 2.245 1.909.914 0 1.74-.212 2.655-.69l-.43 2.718zm-1.43-6.472c.012-.23.02-.413.02-.553 0-.887-.45-1.406-1.209-1.406-.816 0-1.397.698-1.63 1.948l2.82.011zm31.837 6.472a7.933 7.933 0 0 1-2.62.443c-2.86 0-4.348-1.676-4.348-4.872 0-3.733 1.897-6.486 4.468-6.486 2.108 0 3.455 1.539 3.455 3.956 0 .799-.095 1.582-.321 2.685h-5.084c-.016.162-.025.243-.025.337 0 1.269.762 1.909 2.244 1.909.914 0 1.742-.212 2.658-.69l-.427 2.718zm-1.437-6.472a8.02 8.02 0 0 0 .026-.553c0-.887-.452-1.406-1.209-1.406-.816 0-1.396.698-1.633 1.948l2.816.011zm37.111 6.472a7.992 7.992 0 0 1-2.626.443c-2.855 0-4.349-1.676-4.349-4.872 0-3.733 1.901-6.486 4.472-6.486 2.107 0 3.45 1.539 3.45 3.956 0 .799-.088 1.582-.315 2.685H77.55a2.769 2.769 0 0 0-.021.337c0 1.269.763 1.909 2.246 1.909.914 0 1.739-.212 2.656-.69l-.424 2.718zm-1.437-6.472c.011-.23.019-.413.019-.553 0-.887-.447-1.406-1.208-1.406-.817 0-1.395.698-1.632 1.948l2.821.011zM8.36 20.48c-.501-.333-1.179-.624-2.136-.624-1.034 0-1.865.213-1.865 1.307 0 1.933 3.768 1.211 3.768 5.35 0 3.77-2.487 4.746-4.737 4.746-1 0-2.152-.33-3.001-.704l.61-2.77c.513.463 1.546.78 2.391.78.805 0 2.067-.22 2.067-1.618 0-2.19-3.766-1.375-3.766-5.219 0-3.516 2.2-4.569 4.322-4.569 1.195 0 2.318.174 2.976.61l-.63 2.71zm15.05 10.31c-.526.253-1.23.419-2.27.419-2.234 0-3.62-2.223-3.62-4.93 0-3.54 2.005-6.366 4.954-6.366.644 0 1.626.277 2.4.724l-.565 2.598c-.548-.359-1.12-.587-1.707-.587-1.367 0-2.343 1.247-2.343 3.48 0 1.287.708 2.342 1.827 2.342.666 0 1.134-.14 1.707-.473l-.382 2.793zm9.563-2.724a42.706 42.706 0 0 0-.326 2.82h-2.46l.207-1.758h-.025c-.771 1.196-1.568 2.01-2.962 2.01-1.545 0-2.382-1.619-2.382-3.732 0-.729.046-1.14.21-2.277l.696-5.035h2.738l-.734 5.05c-.075.542-.18 1.08-.18 1.641 0 .637.292 1.28 1.03 1.241 1.123 0 1.785-1.367 1.974-2.961l.756-4.971h2.65l-1.192 7.972zm51.585 2.689h-.414v-1.804h-.599v-.386h1.612v.386h-.599zm2.745 0h-.386v-1.83h-.006l-.37 1.83h-.405l-.361-1.83h-.006v1.83h-.386v-2.19h.604l.36 1.727h.005l.353-1.727h.598z" fill="#626F77" fill-rule="evenodd" opacity=".438"/></svg>