<svg width="77" height="43" xmlns="http://www.w3.org/2000/svg"><g fill="#626F77" fill-rule="evenodd" opacity=".438"><path d="M65.302 28.523a26.073 26.073 0 0 1-.418 2.43c-.726-.236-1.564-.612-2.747-.534-.706.047-1.542.316-1.553.949-.012.7 1.147 1.116 1.792 1.422 1.163.553 2.41 1.289 2.508 2.786.074 1.152-.464 2.153-1.075 2.727-1.628 1.527-5.239 1.689-7.704.712a64.88 64.88 0 0 0 .418-2.49c.954.403 2.265.947 3.703.771.655-.08 1.456-.46 1.433-1.126-.028-.814-1.558-1.297-2.33-1.72-.895-.49-1.914-1.304-1.97-2.548-.037-.83.288-1.605.717-2.135 1.272-1.57 4.543-2.128 7.226-1.244zM36.033 12.647h3.292l-2.027 12.682h-3.293zm-11.409-.001h5.041c3.208 0 4.04 1.834 3.69 4.023-.292 1.83-1.615 3.05-3.335 3.484l3.194 5.176H29.08l-2.395-4.98-.796 4.98h-3.293l2.028-12.683zm2.89 2.522l-.509 3.182h.952c.926 0 1.801-.716 1.947-1.591.145-.875-.493-1.591-1.419-1.591h-.971zm23.556-2.521h3.293l-2.027 12.682h-3.293zm5.794-.001h7.23l-.44 2.758h-3.937l-.347 2.167h3.742l-.44 2.758h-3.743l-.358 2.243h3.936l-.44 2.757h-7.23zm-41.427 0h7.229l-.44 2.758h-3.937l-.347 2.167h3.742l-.44 2.758h-3.742l-.359 2.243h3.937l-.441 2.757h-7.23zm26.383 0h7.31l-.441 2.758H44.67l-.352 2.167h3.656l-.443 2.758h-3.654l-.8 5H39.79zm24.211 0h4.292c5.112 0 6.277 3.838 5.877 6.345-.573 3.58-3.79 6.338-7.905 6.338h-4.291l2.027-12.683zm2.852 2.758h.68c2.517 0 3.501 1.762 3.23 3.462-.365 2.28-2.017 3.706-4.175 3.706h-.88l1.145-7.168zM0 10.918h6.091l.724 9.214C10.845 13.208 14.94 6.545 19.067 0h1.987c-4.368 8.362-8.68 16.778-12.858 25.33H3.724l-1.09-10.162c-.27-2.522-.784-3.593-2.634-3.864v-.386z"/><path d="M2.306 5.679L7.5 7.864l.451 5.74h.384l4.714-7.922v-.397H2.306zm24.011 28.735c.788 0 1.323.716 1.195 1.6-.127.881-.87 1.598-1.657 1.598s-1.322-.716-1.195-1.599c.128-.883.87-1.6 1.657-1.6zm-2.66-6.102h2.131l-.718 4.999c.609-.584 1.353-.944 2.185-.944 1.71 0 2.83 1.635 2.53 3.654-.303 2.018-1.915 3.655-3.625 3.655-.843 0-1.447-.377-1.859-1.01l-.114.792h-2.131l1.601-11.146z"/><path d="M29.967 32.537h2.557l1.144 3.543 2.222-3.543h2.471l-6.486 10.34h-2.47l2.734-4.36zm21.103 6.917l1.872-11.146h3.065l-1.873 11.146zm-2.563-11.169c-1.056 2.469-1.957 5.092-3.045 7.528l-.32-1.462c0-.005-.004-.012-.005-.018l.054.26c-.236-.769-.638-1.494-1.151-2.16l-.041-.052a11.158 11.158 0 0 0-.461-.54 11.169 11.169 0 0 0-2.592-2.05l2.724 9.638h3.285c1.546-3.76 3.215-7.4 4.777-11.144h-3.225z"/><path d="M42.723 28.287h-5.01v.243c2.884.558 6.525 2.96 7.478 6.064l-1.075-5.191c-.147-.8-.708-1.116-1.393-1.116zm32.91 11.203h-2.807c-.181-.532-.232-1.193-.418-1.72h-3.822l-.716 1.72h-3.225l4.18-9.545c.185-.419.516-.99.657-1.245.212-.386 1.034-.415 1.383-.415h2.32l2.448 11.204zm-4.65-8.117l-1.56 4.144h2.522l-.962-4.144z"/></g></svg>