<svg width="42" height="48" xmlns="http://www.w3.org/2000/svg"><g transform="translate(0 3)" fill="none" fill-rule="evenodd"><path d="M14.822 11.704H26.93c3.524 0 4.805.297 6.14.888a8.105 8.105 0 0 1 3.301 2.653c.865 1.176 1.43 2.362 2.19 5.803l2.602 11.791a9 9 0 0 1-7.52 10.85l-1.577.224a79.41 79.41 0 0 1-22.379 0l-1.577-.224a9 9 0 0 1-7.52-10.85l2.602-11.79c.759-3.442 1.325-4.628 2.19-5.804a8.105 8.105 0 0 1 3.301-2.653c1.335-.59 2.616-.888 6.14-.888z" fill="#E2E2E2"/><circle stroke="#E2E2E2" stroke-width="6" cx="21" cy="7" r="7"/><text font-family="HelveticaNeue-Bold, Helvetica Neue" font-size="22" font-weight="bold" fill="#FFF"><tspan x="8.93" y="34">kg</tspan></text></g></svg>